<svg width="18" height="16" viewBox="0 0 18 16" fill="none" xmlns="http://www.w3.org/2000/svg">
<g clip-path="url(#clip0_246_2164)">
<path d="M18 16H9.27328V14.8149H0V13.6481H18V16ZM18 12.4009H8.7543C8.7179 12.2999 8.62692 12.0517 8.55412 11.8664C8.48132 11.6811 8.3539 11.3497 8.29931 11.2071H0V10.049H18V12.4009ZM18 7.5902H16.2346C16.3195 7.71492 16.5185 8.01069 16.635 8.19599C16.7515 8.38129 16.9383 8.67706 17.0172 8.80178H6.8615C6.77048 8.67706 6.53385 8.3706 6.31545 8.14254C6.09704 7.91448 5.86046 7.67929 5.76947 7.5902H0V6.44989H18V7.5902ZM18 4.00021H13.1174C13.2328 4.1063 13.5146 4.37156 13.7186 4.58377C13.9227 4.79597 14.1923 5.08479 14.3016 5.20267H2.33198C2.17409 5.12014 1.7089 4.90206 1.11134 4.68985C0.513769 4.47768 0.121461 4.36568 0 4.33621V2.85078H18V4.00021ZM7.05061 0.0178174C7.29353 0.130661 7.91417 0.427617 8.45344 0.712695C8.99271 0.997773 9.69839 1.41351 9.98381 1.58575H0V0L7.05061 0.0178174Z" fill="black"/>
</g>
<defs>
<clipPath id="clip0_246_2164">
<rect width="18" height="16" fill="white"/>
</clipPath>
</defs>
</svg>
