<svg width="332" height="367" viewBox="0 0 332 367" fill="none" xmlns="http://www.w3.org/2000/svg">
<path d="M331.569 124.833V22.0898C331.569 11.0646 322.625 2.27625 311.764 2.27625H209.069C192.938 2.27625 176.967 5.47186 162.113 11.5438C147.26 17.7754 133.685 26.7236 122.345 38.2283L121.546 39.0272C106.533 54.2069 95.8326 73.0617 90.4023 93.8339C100.145 91.2774 110.206 89.9991 120.268 89.8393C147.1 89.5197 173.453 98.1483 194.855 114.287C214.18 128.668 228.873 148.481 236.859 171.331C245.164 194.5 246.122 219.746 239.893 243.554C260.496 238.122 279.503 227.416 294.675 212.396L295.474 211.597C306.813 200.252 315.917 186.67 322.145 171.81C328.374 156.95 331.409 140.971 331.409 124.833H331.569Z" fill="#18E299"/>
<path d="M87.3368 123.098C87.4959 91.5794 100.066 61.3343 122.182 38.7301L36.739 124.212C36.4207 124.531 36.1024 124.69 35.7841 125.008C14.9405 145.702 2.37105 173.4 0.302602 202.69C-1.60673 230.07 5.55312 257.131 20.8278 279.736C22.2848 281.892 26.2381 282.601 28.4656 280.532L80.8131 228.319C97.2016 211.923 102.293 187.568 94.4968 165.759C89.5644 152.229 87.1777 137.743 87.3368 123.098Z" fill="#0C8C5E"/>
<path d="M294.976 211.605C278.587 227.683 258.062 238.826 235.786 243.761C213.351 248.695 190.121 247.263 168.482 239.622C168.482 239.622 168.323 239.622 168.164 239.622C146.365 231.822 122.022 236.916 105.633 253.153L53.285 305.365C51.0575 307.594 51.3757 311.255 54.0806 313.006C76.6744 328.129 103.724 335.451 131.091 333.541C160.368 331.472 187.894 318.896 208.737 298.043L209.533 297.247L294.976 211.765V211.605Z" fill="#0C8C5E"/>
</svg>
